<svg width="1391" height="807" viewBox="0 0 1391 807" fill="none" xmlns="http://www.w3.org/2000/svg">
<g filter="url(#filter0_d)">
<path fill-rule="evenodd" clip-rule="evenodd" d="M118.207 275.399C81.9673 275.399 63.8192 319.215 89.4454 344.839L223.729 479.113C242.483 497.865 267.917 508.399 294.437 508.399H365.13C391.65 508.399 417.084 518.934 435.838 537.686L596.877 698.713C615.631 717.465 641.065 728 667.585 728H1056.44C1128.97 728 1165.3 640.302 1114 589.015L1027.61 502.63C1008.2 483.22 1021.95 450.03 1049.4 450.03C1076.85 450.03 1090.6 416.841 1071.19 397.431L875.851 202.111C857.097 183.359 831.663 172.824 805.143 172.824H570.701C544.18 172.824 518.746 162.289 499.993 143.537L464.74 108.287C445.986 89.5346 420.552 79 394.032 79H158.88C107.632 79 81.9673 140.963 118.207 177.199L146.968 205.959C172.595 231.583 154.447 275.399 118.207 275.399Z" fill="#2D314D"/>
</g>
<path fill-rule="evenodd" clip-rule="evenodd" d="M256.207 -31.601C219.967 -31.601 201.819 12.2148 227.445 37.8391L361.729 172.113C380.483 190.865 405.917 201.399 432.437 201.399H503.13C529.65 201.399 555.084 211.934 573.838 230.686L734.877 391.713C753.631 410.465 779.065 421 805.585 421H1194.44C1266.97 421 1303.3 333.302 1252 282.015L1165.61 195.63C1146.2 176.22 1159.95 143.03 1187.4 143.03C1214.85 143.03 1228.6 109.841 1209.19 90.4307L1013.85 -104.889C995.097 -123.641 969.663 -134.176 943.143 -134.176H708.701C682.18 -134.176 656.746 -144.711 637.993 -163.463L602.74 -198.713C583.986 -217.465 558.552 -228 532.032 -228H296.88C245.632 -228 219.967 -166.037 256.207 -129.801L284.968 -101.041C310.595 -75.4169 292.447 -31.601 256.207 -31.601Z" fill="url(#paint0_linear)"/>
<defs>
<filter id="filter0_d" x="0.448914" y="4" width="1214.57" height="803" filterUnits="userSpaceOnUse" color-interpolation-filters="sRGB">
<feFlood flood-opacity="0" result="BackgroundImageFix"/>
<feColorMatrix in="SourceAlpha" type="matrix" values="0 0 0 0 0 0 0 0 0 0 0 0 0 0 0 0 0 0 127 0" result="hardAlpha"/>
<feOffset dy="2"/>
<feGaussianBlur stdDeviation="38.5"/>
<feColorMatrix type="matrix" values="0 0 0 0 0 0 0 0 0 0 0 0 0 0 0 0 0 0 0.0240111 0"/>
<feBlend mode="normal" in2="BackgroundImageFix" result="effect1_dropShadow"/>
<feBlend mode="normal" in="SourceGraphic" in2="effect1_dropShadow" result="shape"/>
</filter>
<linearGradient id="paint0_linear" x1="-455.913" y1="95.1382" x2="76.8341" y2="1107.28" gradientUnits="userSpaceOnUse">
<stop stop-color="#33D35E"/>
<stop offset="1" stop-color="#2AB6D9"/>
</linearGradient>
</defs>
</svg>
